<svg width="263" height="112" viewBox="0 0 263 112" fill="none" xmlns="http://www.w3.org/2000/svg">
<path d="M103.883 111.469H86.8672L96.3925 85.0644L77.8779 33.2383H96.6063L101.957 51.426C103.348 56.0286 104.525 60.1922 105.49 65.3417H105.916C106.881 59.6436 107.736 56.4672 109.128 51.426L114.263 33.2383H131.814L103.883 111.469Z" fill="white"/>
<path d="M175.37 49.5655C173.337 49.2366 170.769 48.9081 167.452 48.9081C158.14 48.9081 154.822 54.4962 154.822 61.6179V85.7225H136.738V33.2408H154.182V42.2255H154.716C158.14 36.0901 163.492 31.8164 170.448 31.8164C172.695 31.8164 173.873 31.9265 175.372 32.255V49.5655H175.37Z" fill="white"/>
<path d="M232.418 59.3116C232.418 60.6263 232.418 61.7223 232.204 63.694H196.245C196.245 69.611 200.741 74.4316 206.626 74.4316C210.478 74.4316 213.582 72.4585 215.079 69.5004H231.775C228.458 79.6898 220.645 87.5785 206.303 87.5785C191.535 87.5785 178.905 76.8405 178.905 59.3102C178.905 43.9696 188.323 31.4805 205.875 31.4805C221.61 31.4823 232.418 42.7671 232.418 59.3116ZM196.351 51.972H214.973C214.439 47.0409 210.906 43.4259 205.663 43.4259C200.205 43.4241 196.886 47.3693 196.351 51.972Z" fill="white"/>
<path d="M34.1485 86.7762C27.7287 86.7762 21.9212 85.1855 16.7277 81.9991C11.5308 78.8145 7.44717 74.3936 4.46715 68.7358C1.48758 63.0779 0 56.7596 0 49.7806C0 42.6662 1.53856 36.2984 4.61479 30.6732C7.69191 25.0507 11.9609 20.6279 17.4208 17.4094C22.8811 14.1927 29.0194 12.582 35.8361 12.582C41.5926 12.582 46.8707 13.7505 51.6704 16.0883C56.4669 18.4261 60.4397 21.6632 63.5834 25.7946C66.7234 29.9279 68.7604 34.6724 69.6871 40.0235H50.6297C49.5013 36.9082 47.683 34.4504 45.1681 32.6549C42.6532 30.8594 39.6749 29.9614 36.2351 29.9614C32.7917 29.9614 29.7474 30.8254 27.1 32.5534C24.4529 34.2809 22.3845 36.6695 20.8956 39.7186C19.408 42.7677 18.6618 46.2572 18.6618 50.187C18.6618 54.2528 19.4213 57.8455 20.9453 60.9603C22.4674 64.0774 24.6183 66.5167 27.3961 68.2782C30.1775 70.0415 33.3198 70.9209 36.8288 70.9209C39.0777 70.9209 41.1971 70.5145 43.1826 69.7012C45.1663 68.888 46.9053 67.7703 48.3942 66.3472C49.8817 64.9242 51.0567 63.266 51.9169 61.3672H36.1358V46.9349H70.1868V85.2516H54.8983V78.6451C52.382 81.2878 49.3705 83.3035 45.8629 84.6926C42.3552 86.0817 38.4489 86.7762 34.1485 86.7762Z" fill="white"/>
<path d="M246.703 29.159C254.44 29.159 260.713 22.7368 260.713 14.8151C260.713 6.89285 254.44 0.470703 246.703 0.470703C238.964 0.470703 232.691 6.89285 232.691 14.8151C232.691 22.7368 238.964 29.159 246.703 29.159Z" fill="#FF0049"/>
</svg>
